# xmcd
#
# Track frame offsets:
# 150
# 19349
# 51781
# 65583
# 86651
# 105777
# 124722
# 147330
# 176264
# 205602
#
# Disc length: 3051 seconds
#
# Revision: 1
# Processed by: cddbd v1.5.1PL2 Copyright (c) Steve Scherf et al.
# Submitted via: CedeCatalogueitor 2.6.0.6 http://personales.ya.com/cdcatalogueitor
#
DISCID=7f0be90a
DTITLE=Metallica - Kill 'Em All 
DYEAR=1983
DGENRE=Trash
TTITLE0=Hit The Lights
TTITLE1=The Four Horsemen
TTITLE2=Motorbreath
TTITLE3=Jump In The Fire
TTITLE4=(Anesthesia) Pulling Teeth
TTITLE5=Whiplash
TTITLE6=Phantom Lord
TTITLE7=No Remorse
TTITLE8=Seek and Destroy
TTITLE9=Metal Militia
EXTD=
EXTT0=
EXTT1=
EXTT2=
EXTT3=
EXTT4=
EXTT5=
EXTT6=
EXTT7=
EXTT8=
EXTT9=
PLAYORDER=
